<?xml version="1.0" encoding="UTF-8" standalone="no"?>
<!DOCTYPE svg PUBLIC "-//W3C//DTD SVG 1.1//EN" "http://www.w3.org/Graphics/SVG/1.1/DTD/svg11.dtd">
<svg width="100%" height="100%" viewBox="0 0 253 114" version="1.1" xmlns="http://www.w3.org/2000/svg" xmlns:xlink="http://www.w3.org/1999/xlink" xml:space="preserve" xmlns:serif="http://www.serif.com/" style="fill-rule:evenodd;clip-rule:evenodd;stroke-linejoin:round;stroke-miterlimit:1.41421;">
    <g id="Artboard1" transform="matrix(1,0,0,1,-176.605,-219.972)">
        <rect x="176.605" y="219.972" width="252.319" height="113.34" style="fill:none;"/>
        <g transform="matrix(1,0,0,1,0.60539,0.972082)">
            <path d="M181.857,224.979L181.857,327.822L423.024,327.822L423.024,273.148L366.356,273.148L366.186,224.103L181.857,224.979Z" style="fill:rgb(255,225,0);"/>
        </g>
        <g transform="matrix(1,0,0,1,0.60539,0.972082)">
            <path d="M190.484,269.388L198.74,269.388L198.74,259.5L202.196,259.5C208.724,259.5 214.676,256.188 214.676,248.556C214.676,240.684 208.916,238.188 202.196,238.188L190.484,238.188L190.484,269.388ZM198.74,252.972L198.74,244.716L201.812,244.716C204.884,244.716 206.612,245.772 206.612,248.556C206.612,251.34 205.076,252.972 201.812,252.972L198.74,252.972Z" style="fill:rgb(2,0,56);fill-rule:nonzero;"/>
            <path d="M223.268,278.412C229.556,278.412 232.388,275.484 234.932,269.004L243.956,245.388L236.18,245.388L233.3,254.604C232.58,257.004 231.812,259.452 231.236,261.9L231.044,261.9C230.372,259.308 229.7,256.908 228.884,254.604L225.524,245.388L217.364,245.388L227.444,268.524L227.06,269.58C226.436,271.02 225.14,271.98 222.596,271.98C222.068,271.98 221.492,271.884 220.868,271.692L219.428,277.932C220.532,278.22 221.78,278.412 223.268,278.412Z" style="fill:rgb(2,0,56);fill-rule:nonzero;"/>
            <path d="M263.54,269.964C266.804,269.964 269.396,269.292 271.508,268.716L270.068,262.764C268.772,263.196 267.332,263.532 265.7,263.532C262.628,263.532 261.044,262.476 261.044,259.068L261.044,251.82L270.548,251.82L270.548,245.388L261.044,245.388L261.044,238.188L254.228,238.188L253.172,245.388L247.028,245.676L247.028,251.82L252.788,251.82L252.788,259.212C252.788,265.644 255.668,269.964 263.54,269.964Z" style="fill:rgb(2,0,56);fill-rule:nonzero;"/>
            <path d="M276.884,269.388L285.14,269.388L285.14,253.644C286.388,252.492 287.444,251.82 288.98,251.82C291.092,251.82 291.764,252.972 291.764,255.66L291.764,269.388L300.02,269.388L300.02,254.604C300.02,248.652 297.716,244.812 292.436,244.812C288.884,244.812 286.388,246.444 284.852,247.98L284.66,247.98L285.14,243.756L285.14,235.98L276.884,235.98L276.884,269.388Z" style="fill:rgb(2,0,56);fill-rule:nonzero;"/>
            <path d="M317.012,269.964C323.348,269.964 329.396,265.356 329.396,257.388C329.396,249.42 323.348,244.812 317.012,244.812C310.676,244.812 304.628,249.42 304.628,257.388C304.628,265.356 310.676,269.964 317.012,269.964ZM317.012,263.34C314.228,263.34 313.076,261.036 313.076,257.388C313.076,253.74 314.228,251.436 317.012,251.436C319.796,251.436 320.948,253.74 320.948,257.388C320.948,261.036 319.796,263.34 317.012,263.34Z" style="fill:rgb(2,0,56);fill-rule:nonzero;"/>
            <path d="M334.484,269.388L342.74,269.388L342.74,253.644C343.988,252.492 345.044,251.82 346.58,251.82C348.692,251.82 349.364,252.972 349.364,255.66L349.364,269.388L357.62,269.388L357.62,254.604C357.62,248.652 355.316,244.812 349.988,244.812C346.484,244.812 343.892,246.444 341.972,248.268L341.78,248.268L341.204,245.388L334.484,245.388L334.484,269.388Z" style="fill:rgb(2,0,56);fill-rule:nonzero;"/>
            <path d="M199.364,302.22C200.036,299.244 200.852,295.5 201.524,292.332L201.716,292.332C202.388,295.5 203.3,299.244 203.972,302.22L204.452,304.38L198.884,304.38L199.364,302.22ZM187.412,317.388L195.86,317.388L197.396,310.764L205.94,310.764L207.476,317.388L216.212,317.388L206.804,286.188L196.82,286.188L187.412,317.388Z" style="fill:rgb(2,0,56);fill-rule:nonzero;"/>
            <path d="M228.26,317.964C230.42,317.964 232.772,316.812 234.452,315.18L234.644,315.18L235.22,317.388L241.94,317.388L241.94,283.98L233.684,283.98L233.684,291.756L234.068,295.212L233.876,295.212C232.436,293.676 230.804,292.812 228.26,292.812C223.22,292.812 218.228,297.516 218.228,305.388C218.228,313.164 222.164,317.964 228.26,317.964ZM230.42,311.244C228.068,311.244 226.676,309.612 226.676,305.292C226.676,301.068 228.5,299.532 230.516,299.532C231.668,299.532 232.724,299.82 233.684,300.684L233.684,309.516C232.772,310.86 231.764,311.244 230.42,311.244Z" style="fill:rgb(2,0,56);fill-rule:nonzero;"/>
            <path d="M260.852,317.964C263.828,317.964 267.572,317.004 270.452,315.18L267.764,310.284C265.652,311.244 263.924,311.724 262.004,311.724C258.5,311.724 256.388,310.572 255.668,307.884L271.076,307.884C271.172,307.308 271.412,305.868 271.412,304.428C271.412,297.996 267.572,292.812 259.988,292.812C253.556,292.812 247.412,297.516 247.412,305.388C247.412,313.356 253.268,317.964 260.852,317.964ZM260.276,299.052C262.532,299.052 263.78,300.252 264.116,302.508L255.716,302.508C256.388,300.156 257.924,299.052 260.276,299.052Z" style="fill:rgb(2,0,56);fill-rule:nonzero;"/>
            <path d="M292.58,317.964C295.7,317.964 297.428,317.484 300.02,316.716L298.244,310.668C296.852,311.148 295.796,311.34 294.788,311.34C293.108,311.34 291.188,310.572 291.188,307.788L291.188,283.98L275.732,283.98L275.732,290.412L282.932,290.412L282.932,307.5C282.932,313.74 286.196,317.964 292.58,317.964Z" style="fill:rgb(2,0,56);fill-rule:nonzero;"/>
            <path d="M312.98,317.964C315.956,317.964 318.788,316.62 321.14,314.892L321.332,314.892L321.908,317.388L328.628,317.388L328.628,304.044C328.628,296.172 324.212,292.812 317.396,292.812C313.364,292.812 309.62,293.964 305.972,295.98L308.852,301.356C311.732,300.012 313.748,299.34 315.764,299.34C318.452,299.34 320.084,300.108 320.372,301.836C309.428,302.412 305.204,305.196 305.204,310.572C305.204,314.508 307.988,317.964 312.98,317.964ZM315.668,311.628C313.94,311.628 313.076,311.004 313.076,309.9C313.076,308.268 314.516,306.924 320.372,306.732L320.372,309.804C319.076,310.764 317.588,311.628 315.668,311.628Z" style="fill:rgb(2,0,56);fill-rule:nonzero;"/>
            <path d="M344.084,317.388L352.34,317.388L352.34,293.388L334.964,293.388L334.964,299.82L344.084,299.82L344.084,317.388ZM347.924,290.124C350.996,290.124 353.204,288.204 353.204,285.324C353.204,282.444 350.996,280.428 347.924,280.428C344.852,280.428 342.644,282.444 342.644,285.324C342.644,288.204 344.852,290.124 347.924,290.124Z" style="fill:rgb(2,0,56);fill-rule:nonzero;"/>
            <path d="M372.26,317.964C374.42,317.964 376.772,316.812 378.452,315.18L378.644,315.18L379.22,317.388L385.94,317.388L385.94,283.98L377.684,283.98L377.684,291.756L378.068,295.212L377.876,295.212C376.436,293.676 374.804,292.812 372.26,292.812C367.22,292.812 362.228,297.516 362.228,305.388C362.228,313.164 366.164,317.964 372.26,317.964ZM374.42,311.244C372.068,311.244 370.676,309.612 370.676,305.292C370.676,301.068 372.5,299.532 374.516,299.532C375.668,299.532 376.724,299.82 377.684,300.684L377.684,309.516C376.772,310.86 375.764,311.244 374.42,311.244Z" style="fill:rgb(2,0,56);fill-rule:nonzero;"/>
            <path d="M404.852,317.964C407.828,317.964 411.572,317.004 414.452,315.18L411.764,310.284C409.652,311.244 407.924,311.724 406.004,311.724C402.5,311.724 400.388,310.572 399.668,307.884L415.076,307.884C415.172,307.308 415.412,305.868 415.412,304.428C415.412,297.996 411.572,292.812 403.988,292.812C397.556,292.812 391.412,297.516 391.412,305.388C391.412,313.356 397.268,317.964 404.852,317.964ZM404.276,299.052C406.532,299.052 407.78,300.252 408.116,302.508L399.716,302.508C400.388,300.156 401.924,299.052 404.276,299.052Z" style="fill:rgb(2,0,56);fill-rule:nonzero;"/>
        </g>
    </g>
</svg>
